<svg width="16" height="16" viewBox="0 0 16 16" fill="none" xmlns="http://www.w3.org/2000/svg">
<path d="M8 3.3335C8.15146 3.3335 8.29672 3.39493 8.40383 3.50429C8.51093 3.61364 8.57109 3.76196 8.57109 3.91662V10.675L11.0211 8.16758C11.1286 8.05777 11.2745 7.99609 11.4266 7.99609C11.5787 7.99609 11.7245 8.05777 11.832 8.16758C11.9396 8.27738 12 8.42631 12 8.58159C12 8.73688 11.9396 8.88581 11.832 8.99561L8.40548 12.4943C8.35239 12.549 8.28922 12.5924 8.21963 12.622C8.15004 12.6516 8.07539 12.6668 8 12.6668C7.92461 12.6668 7.84996 12.6516 7.78037 12.622C7.71078 12.5924 7.64761 12.549 7.59452 12.4943L4.16795 8.99561C4.11471 8.94124 4.07247 8.8767 4.04365 8.80566C4.01483 8.73462 4 8.65848 4 8.58159C4 8.5047 4.01483 8.42857 4.04365 8.35753C4.07247 8.28649 4.11471 8.22195 4.16795 8.16758C4.2212 8.11321 4.28442 8.07008 4.35399 8.04066C4.42356 8.01123 4.49813 7.99609 4.57343 7.99609C4.64874 7.99609 4.7233 8.01123 4.79287 8.04066C4.86245 8.07008 4.92566 8.11321 4.97891 8.16758L7.42891 10.675V3.91662C7.42891 3.76196 7.48907 3.61364 7.59618 3.50429C7.70328 3.39493 7.84854 3.3335 8 3.3335Z" fill="currentColor"/>
</svg>
