<svg width="20" height="20" viewBox="0 0 20 20" fill="none" xmlns="http://www.w3.org/2000/svg">
<path d="M10.8353 13.3336C10.8363 13.8812 10.7294 14.4235 10.5206 14.9297C10.3118 15.4359 10.0053 15.896 9.61866 16.2836L8.43532 17.5003C7.64948 18.2593 6.59697 18.6793 5.50448 18.6698C4.412 18.6603 3.36695 18.2221 2.59441 17.4495C1.82188 16.677 1.38367 15.632 1.37418 14.5395C1.36469 13.447 1.78466 12.3945 2.54366 11.6086L3.71866 10.4253C4.10287 10.0311 4.5614 9.7169 5.06774 9.50092C5.57408 9.28494 6.11819 9.17143 6.66866 9.16696C6.88967 9.16696 7.10163 9.25476 7.25791 9.41104C7.41419 9.56732 7.50199 9.77928 7.50199 10.0003C7.50199 10.2213 7.41419 10.4333 7.25791 10.5895C7.10163 10.7458 6.88967 10.8336 6.66866 10.8336C6.00584 10.8342 5.37038 11.098 4.90199 11.567L3.71866 12.742C3.249 13.2116 2.98515 13.8486 2.98515 14.5128C2.98515 15.177 3.249 15.814 3.71866 16.2836C4.18831 16.7533 4.8253 17.0171 5.48949 17.0171C6.15368 17.0171 6.79067 16.7533 7.26032 16.2836L8.43532 15.1003C8.9043 14.6319 9.16807 13.9964 9.16866 13.3336C9.16866 13.1126 9.25645 12.9007 9.41273 12.7444C9.56901 12.5881 9.78098 12.5003 10.002 12.5003C10.223 12.5003 10.435 12.5881 10.5912 12.7444C10.7475 12.9007 10.8353 13.1126 10.8353 13.3336ZM18.677 5.49196C18.6768 4.6685 18.4326 3.86356 17.9753 3.17877C17.518 2.49398 16.868 1.96006 16.1074 1.64442C15.3469 1.32878 14.5098 1.24558 13.702 1.40533C12.8942 1.56507 12.1518 1.9606 11.5687 2.54196L10.3853 3.71696C9.99864 4.10462 9.69216 4.56469 9.48339 5.07087C9.27463 5.57705 9.16768 6.11942 9.16866 6.66696C9.16866 6.88797 9.25645 7.09993 9.41273 7.25621C9.56901 7.41249 9.78098 7.50029 10.002 7.50029C10.223 7.50029 10.435 7.41249 10.5912 7.25621C10.7475 7.09993 10.8353 6.88797 10.8353 6.66696C10.8359 6.00414 11.0997 5.36868 11.5687 4.90029L12.7437 3.71696C12.9762 3.48441 13.2523 3.29994 13.5561 3.17409C13.86 3.04823 14.1856 2.98345 14.5145 2.98345C14.8434 2.98345 15.169 3.04823 15.4729 3.17409C15.7767 3.29994 16.0528 3.48441 16.2853 3.71696C16.5179 3.94951 16.7023 4.22558 16.8282 4.52942C16.954 4.83326 17.0188 5.15892 17.0188 5.48779C17.0188 5.81667 16.954 6.14232 16.8282 6.44616C16.7023 6.75 16.5179 7.02608 16.2853 7.25863L15.102 8.43362C14.6336 8.9026 13.9981 9.16637 13.3353 9.16696C13.1143 9.16696 12.9023 9.25476 12.7461 9.41104C12.5898 9.56732 12.502 9.77928 12.502 10.0003C12.502 10.2213 12.5898 10.4333 12.7461 10.5895C12.9023 10.7458 13.1143 10.8336 13.3353 10.8336C13.8829 10.8346 14.4252 10.7277 14.9314 10.5189C15.4376 10.3101 15.8977 10.0036 16.2853 9.61696L17.502 8.43362C18.2656 7.64599 18.6879 6.58896 18.677 5.49196ZM6.91032 13.092C6.98779 13.1701 7.07996 13.2321 7.18151 13.2744C7.28306 13.3167 7.39198 13.3385 7.50199 13.3385C7.612 13.3385 7.72092 13.3167 7.82247 13.2744C7.92402 13.2321 8.01619 13.1701 8.09366 13.092L13.0937 8.09196C13.2506 7.93504 13.3387 7.72221 13.3387 7.50029C13.3387 7.27837 13.2506 7.06554 13.0937 6.90862C12.9367 6.75171 12.7239 6.66355 12.502 6.66355C12.2801 6.66355 12.0672 6.75171 11.9103 6.90862L6.91032 11.9086C6.83222 11.9861 6.77022 12.0783 6.72791 12.1798C6.68561 12.2814 6.66382 12.3903 6.66382 12.5003C6.66382 12.6103 6.68561 12.7192 6.72791 12.8208C6.77022 12.9223 6.83222 13.0145 6.91032 13.092Z" fill="#181836"/>
</svg>
