<svg width="183" height="102" viewBox="0 0 183 102" fill="none" xmlns="http://www.w3.org/2000/svg">
<path d="M79.8624 24.3761C76.3524 24.9309 73.4335 26.2831 70.9443 28.5195C68.849 30.3918 67.7567 32.2121 65.7152 37.1356L64.6049 39.8748H59.9846C55.633 39.8748 55.3465 39.8921 54.9167 40.2215C54.666 40.4122 54.4153 40.7936 54.3436 41.071C54.2362 41.5391 54.8988 44.5209 55.3644 45.6478C55.6688 46.3932 56.3493 46.6359 58.1043 46.6359H59.6623L58.9101 47.4508C58.0327 48.4216 57.4417 49.4791 57.0298 50.8313C56.7791 51.6635 56.7433 52.5823 56.797 56.8991C56.8507 61.7359 56.8686 62.0306 57.2626 62.9841C57.4954 63.5215 57.961 64.371 58.2834 64.8391L58.8743 65.7059L58.946 69.988C58.9997 73.6459 59.0534 74.3914 59.322 74.9808C59.7697 75.9343 60.6293 76.7665 61.6859 77.2519C62.5275 77.6333 62.7783 77.668 65.8226 77.668C69.6191 77.668 70.3712 77.4946 71.5352 76.3677C72.6634 75.2929 72.8783 74.4607 72.8783 71.3922V68.8264H91.1444H109.41V71.3922C109.41 74.4607 109.625 75.2929 110.754 76.3677C111.953 77.5466 112.723 77.7026 116.699 77.6333C120.442 77.5813 120.872 77.4599 122.071 76.2464C123.2 75.1022 123.271 74.7381 123.343 69.9706L123.414 65.6539L124.005 64.8044C124.346 64.3537 124.793 63.5215 125.026 62.9668C125.42 62.0306 125.438 61.7359 125.492 56.8644C125.528 53.4838 125.474 51.4901 125.348 50.9874C125.044 49.7912 124.328 48.4736 123.45 47.4161L122.644 46.4626H124.256C126.459 46.4626 126.656 46.2892 127.247 43.8968C127.802 41.6084 127.802 40.8976 127.265 40.2909L126.853 39.8401L122.197 39.8574L117.559 39.8921L116.215 36.4769C114.622 32.4028 113.762 30.9292 111.989 29.1263C109.876 26.9766 107.494 25.607 104.468 24.7575C103.071 24.3761 102.91 24.3761 91.6816 24.3414C85.4318 24.3241 80.1131 24.3414 79.8624 24.3761ZM102.838 33.8417C104.217 34.4659 105.13 35.194 105.793 36.1648C106.259 36.8236 109.231 43.6888 109.231 44.0702C109.231 44.1569 101.083 44.2089 91.1265 44.2089H73.0395L73.1648 43.8101C73.4693 42.8393 75.8152 37.2743 76.245 36.5289C77.015 35.1246 78.77 33.8764 80.525 33.4777C80.9011 33.391 85.8436 33.3217 91.5025 33.339L101.8 33.3737L102.838 33.8417ZM70.2817 51.7155C71.6785 52.3916 73.72 54.368 74.4184 55.7549C75.0452 56.9857 75.1168 58.1993 74.5975 58.754C73.8812 59.5168 72.8246 59.7249 69.7444 59.7249C67.1299 59.7249 66.8075 59.6902 66.1449 59.3435C64.6049 58.546 63.7453 57.1071 63.7453 55.3561C63.7453 53.3278 64.9809 51.7155 66.9329 51.2127C68.0253 50.9354 68.9565 51.074 70.2817 51.7155ZM116.036 51.4381C117.541 52.0275 118.543 53.6225 118.543 55.4428C118.543 57.2111 117.738 58.5113 116.126 59.3435C115.481 59.6902 115.141 59.7249 112.544 59.7249C108.479 59.7249 107.351 59.2568 107.351 57.5752C107.351 55.2868 110.825 51.6635 113.529 51.1261C114.281 50.9874 115.177 51.0914 116.036 51.4381Z" fill="#E7E8F0"/>
</svg>
